<?xml version="1.0" encoding="utf-8"?>
<!-- Generator: Adobe Illustrator 28.0.0, SVG Export Plug-In . SVG Version: 6.00 Build 0)  -->
<svg version="1.1" id="Layer_1" xmlns:xodm="http://www.corel.com/coreldraw/odm/2003"
	 xmlns="http://www.w3.org/2000/svg" xmlns:xlink="http://www.w3.org/1999/xlink" x="0px" y="0px" viewBox="0 0 63.5 57"
	 style="enable-background:new 0 0 63.5 57;" xml:space="preserve">
<style type="text/css">
	.st0{fill-rule:evenodd;clip-rule:evenodd;fill:#FAD000;}
	.st1{fill:#262623;}
</style>
<g id="Слой_x0020_1">
	<path class="st0" d="M6.5,0H57c3.6,0,6.5,2.6,6.5,5.8v45.4c0,3.2-2.9,5.8-6.5,5.8L6.5,57C2.9,57,0,54.4,0,51.2L0,5.8
		C0,2.6,2.9,0,6.5,0L6.5,0z"/>
	<path class="st1" d="M52.2,15.5c-0.1,0-0.6-0.1-1.4-0.3c-0.8-0.2-1.5-0.3-2.2-0.3c-2.2,0-4.6,0.1-7.3,0.3c-2.7,0.2-5,0.5-6.8,0.8
		c0.1,1.9,0.3,5,0.4,9.1c0.1,4.1,0.2,8.5,0.2,13.1c0,1.9,0,4.1-0.1,6.4c-0.1,2.4-0.2,3.8-0.3,4.4c-0.1,0.4-0.4,0.8-0.9,1.1
		s-1,0.4-1.6,0.4c-0.3,0-0.6-0.1-0.8-0.4c-0.2-0.2-0.3-0.5-0.3-0.8l0.1-2.1c0.3-3.1,0.4-7,0.4-11.5c0-3.3,0-7-0.1-11.3
		c-0.1-4.2-0.2-6.8-0.3-7.8c-9,0.9-15,1.7-18,2.5c-0.5,0.2-1.1,0.2-1.8,0.2c-0.8,0-1.6-0.3-2.4-0.8c-0.8-0.5-1.1-1.1-1.1-1.7
		c0-0.4,0.1-0.7,0.4-0.9c0.3-0.2,0.6-0.3,1-0.3c2.6-0.1,4.7-0.2,6.5-0.4c4-0.3,9-0.8,15.1-1.5c0-1.2,0-2.1,0.1-2.6
		c0.1-0.5,0.2-0.8,0.4-0.8c0.9,0,1.6,0.3,2.3,0.9c0.1,0.1,0.2,0.4,0.3,0.9c0.1,0.5,0.1,0.8,0.1,1c1,0,2.6-0.2,4.9-0.6
		c4.9-0.7,8.2-1,10-1c2.2,0,3.6,0.2,4.3,0.7c0.5,0.3,0.7,0.9,0.7,1.7c0,0.3-0.2,0.7-0.5,1C53.1,15.4,52.7,15.5,52.2,15.5L52.2,15.5z
		"/>
</g>
</svg>
