
<svg xmlns="http://www.w3.org/2000/svg" xml:space="preserve" width="100mm" height="100mm" version="1.1" style="shape-rendering:geometricPrecision; text-rendering:geometricPrecision; image-rendering:optimizeQuality; fill-rule:evenodd; clip-rule:evenodd"
viewBox="0 0 10000 10000">
 <defs>
  <style type="text/css">
   <![CDATA[
    .str0 {stroke:#2B2A29;stroke-width:20;stroke-miterlimit:22.9256}
    .fil0 {fill:#2A2925}
    .fil1 {fill:#CBD506;fill-rule:nonzero}
   ]]>
  </style>
 </defs>
 <g id="Слой_x0020_1">
  <metadata id="CorelCorpID_0Corel-Layer"/>
  <rect class="fil0 str0" x="191.56" y="12.43" width="9738.01" height="9809.35" rx="1000" ry="1000"/>
  <path class="fil1" d="M8191.83 2684.56c-20.66,0 -91.27,-18.95 -211.81,-56.83 -120.55,-37.88 -232.49,-56.83 -335.81,-56.83 -330.65,0 -706.07,17.22 -1126.27,51.66 -420.19,34.44 -768.05,82.67 -1043.59,144.66 20.66,330.65 39.6,852.45 56.83,1565.39 17.21,712.96 25.83,1462.08 25.83,2247.36 0,330.64 -5.17,699.17 -15.5,1105.59 -10.33,406.43 -25.84,657.85 -46.5,754.29 -13.78,75.77 -60.28,137.77 -139.49,185.99 -79.21,48.22 -160.15,72.33 -242.81,72.33 -48.23,0 -89.56,-20.67 -124,-62 -34.44,-41.33 -51.67,-89.55 -51.67,-144.66l10.34 -361.64c41.33,-537.3 62,-1198.59 62,-1983.87 0,-564.86 -6.89,-1210.64 -20.67,-1937.37 -13.77,-726.73 -27.56,-1176.2 -41.33,-1348.42 -1377.69,151.55 -2297.29,292.76 -2758.82,423.65 -82.66,27.55 -175.66,41.32 -278.98,41.32 -123.99,0 -244.54,-44.78 -361.65,-134.32 -117.1,-89.55 -175.65,-185.98 -175.65,-289.31 0,-68.89 20.67,-118.83 61.99,-149.83 41.34,-31 93,-46.49 155,-46.49 392.64,-20.67 723.28,-41.34 991.94,-62 613.07,-55.11 1384.56,-141.22 2314.51,-258.32 0,-213.54 5.16,-365.09 15.49,-454.63 10.34,-89.55 32.73,-134.33 67.17,-134.33 130.88,0 247.98,51.66 351.3,154.99 20.67,20.66 37.9,74.05 51.67,160.15 13.78,86.11 20.67,142.95 20.67,170.5 151.55,-6.9 399.52,-41.34 743.95,-103.33 743.95,-117.1 1253.69,-175.66 1529.23,-175.66 330.65,0 551.08,41.33 661.29,124 75.77,55.1 113.66,154.99 113.66,299.64 0,55.11 -24.11,111.94 -72.33,170.49 -48.22,58.55 -110.21,87.83 -185.99,87.83z"/>
 </g>
</svg>
